<?xml version="1.0" encoding="UTF-8" standalone="no"?>
<!-- Created with Inkscape (http://www.inkscape.org/) -->

<svg
   width="138.36682mm"
   height="132.40311mm"
   viewBox="0 0 138.36682 132.40311"
   version="1.1"
   id="svg14017"
   xml:space="preserve"
   inkscape:version="1.2 (dc2aedaf03, 2022-05-15)"
   sodipodi:docname="Nika.svg"
   xmlns:inkscape="http://www.inkscape.org/namespaces/inkscape"
   xmlns:sodipodi="http://sodipodi.sourceforge.net/DTD/sodipodi-0.dtd"
   xmlns="http://www.w3.org/2000/svg"
   xmlns:svg="http://www.w3.org/2000/svg"><sodipodi:namedview
     id="namedview14019"
     pagecolor="#ffffff"
     bordercolor="#000000"
     borderopacity="0.25"
     inkscape:showpageshadow="2"
     inkscape:pageopacity="0.0"
     inkscape:pagecheckerboard="0"
     inkscape:deskcolor="#d1d1d1"
     inkscape:document-units="mm"
     showgrid="false"
     inkscape:zoom="1.2623761"
     inkscape:cx="-45.945104"
     inkscape:cy="276.46278"
     inkscape:window-width="2560"
     inkscape:window-height="1369"
     inkscape:window-x="2552"
     inkscape:window-y="-8"
     inkscape:window-maximized="1"
     inkscape:current-layer="layer1" /><defs
     id="defs14014" /><g
     inkscape:label="Слой 1"
     inkscape:groupmode="layer"
     id="layer1"
     transform="translate(-33.084237,-9.043032)"><g
       id="g21238"><path
         d="m 153.59903,102.5997 c 1.20713,-0.0231 2.4142,-0.0372 3.62148,-0.0496 0.34226,-0.007 0.68452,-0.0133 1.03715,-0.0202 0.32998,-0.003 0.65996,-0.005 0.99994,-0.008 0.30344,-0.004 0.60688,-0.008 0.91952,-0.0126 0.93113,0.10106 1.41033,0.32252 2.15316,0.88386 0.40513,0.61043 0.72722,1.16494 1.0418,1.81901 0.0903,0.18573 0.18063,0.37146 0.27369,0.56282 3.0264,6.50659 3.74372,14.08976 4.85558,21.10834 0.36073,2.26191 0.73563,4.51655 1.19799,6.76018 0.0386,0.18729 0.0772,0.37458 0.1169,0.56755 0.17962,0.86381 0.3652,1.72572 0.5569,2.58697 0.0638,0.29701 0.1276,0.59401 0.19333,0.90001 0.0575,0.25597 0.11498,0.51194 0.17421,0.77567 0.0563,0.6382 0.0563,0.6382 -0.4729,1.43195 -2.88131,0 -5.76263,0 -8.73125,0 -0.26458,-1.05833 -0.26458,-1.05833 0.11059,-1.79524 0.497,-1.00996 0.51616,-1.69862 0.50126,-2.81843 -0.001,-0.33254 -0.002,-0.66508 -0.003,-1.00769 -0.084,-1.04781 -0.25588,-1.85903 -0.60875,-2.84531 -0.87227,-0.43613 -1.83704,-0.30234 -2.79466,-0.29765 -0.20993,-0.001 -0.41985,-0.002 -0.63614,-0.003 -1.01193,-0.0973 -1.01193,-0.0973 -1.86087,0.30075 -0.15361,2.03989 0.0807,4.01522 0.41341,6.02548 0.11576,0.85369 0.11576,0.85369 0.11576,2.44119 -2.70669,0 -5.41337,0 -8.20208,0 -2.32482,-4.64963 0.94847,-12.64267 2.4784,-17.24133 1.08305,-3.11893 2.51817,-6.23772 4.25697,-9.04557 0.56902,-0.92845 0.9288,-1.53936 0.97268,-2.64157 -0.5226,-1.69034 -1.29009,-3.26695 -2.04122,-4.86585 -0.11903,-0.26194 -0.23806,-0.52387 -0.3607,-0.79375 -0.11054,-0.23623 -0.22109,-0.47246 -0.33499,-0.71585 -0.23932,-0.77931 -0.16825,-1.22804 0.0559,-2.00233 z m 5.02708,15.61042 c -1.59681,1.69983 -2.17937,3.80424 -2.38125,6.08541 0.0833,0.87651 0.0833,0.87651 0.52917,1.5875 0.7523,0.0264 1.49674,0.0367 2.24896,0.0331 0.21112,0.001 0.42224,0.002 0.63975,0.003 1.01876,0.0985 1.01876,0.0985 1.87379,-0.30076 -0.0886,-2.61297 -0.96861,-5.21089 -2.38125,-7.40833 -0.17463,0 -0.34925,0 -0.52917,0 z"
         style="fill:none;stroke:#a68b4d;stroke-width:1.265;stroke-dasharray:none;stroke-opacity:1"
         id="path20017" /><path
         d="m 57.900994,102.27084 c 0.248807,10e-4 0.497613,0.002 0.753959,0.003 0.270464,5.2e-4 0.540928,10e-4 0.819588,0.002 0.283425,0.003 0.566849,0.006 0.858863,0.01 0.283424,1.7e-4 0.566849,3.4e-4 0.858862,5.2e-4 2.109603,0.012 2.109603,0.012 2.713012,0.31368 0,4.54025 0,9.0805 0,13.75833 1.079946,-0.64797 2.067723,-1.33224 3.059245,-2.10013 0.149216,-0.11375 0.298432,-0.22749 0.452169,-0.34468 1.421461,-1.09561 2.689284,-2.0914 3.10317,-3.90519 0.110275,-1.70927 0.09208,-3.35047 -0.264584,-5.02708 -0.05599,-0.72268 -0.03586,-1.38759 0,-2.11667 0.644825,-0.64483 0.817388,-0.59696 1.701189,-0.59945 0.232264,-6.8e-4 0.464529,-0.001 0.703833,-0.002 0.364768,0.003 0.364768,0.003 0.736905,0.006 0.241133,-0.002 0.482266,-0.004 0.730705,-0.006 0.232947,6.8e-4 0.465894,10e-4 0.7059,0.002 0.212782,6e-4 0.425564,0.001 0.644793,0.002 0.654488,0.075 1.08857,0.27075 1.655842,0.59764 0.491638,3.75313 0.66394,7.36306 0.397909,11.1435 -0.184815,2.76589 -0.19682,5.53222 -0.199472,8.30337 -5.29e-4,0.27101 -0.0011,0.54201 -0.0016,0.82122 -0.0024,4.98805 0.25735,9.90848 0.964984,14.85044 0.215023,1.57767 0.215023,1.57767 -0.368065,2.4523 -2.0955,0 -4.191,0 -6.35,0 -0.642675,-0.96401 -0.609314,-1.45801 -0.637816,-2.6083 -0.0052,-0.18334 -0.01048,-0.36668 -0.01587,-0.55558 -0.0167,-0.60553 -0.02982,-1.21108 -0.04291,-1.81669 -0.01089,-0.42005 -0.022,-0.84009 -0.03332,-1.26012 -0.0292,-1.10521 -0.05535,-2.21047 -0.08088,-3.31577 -0.02659,-1.12799 -0.05605,-2.25591 -0.08527,-3.38383 -0.0569,-2.2129 -0.110588,-4.42585 -0.162264,-6.63887 -0.7737,0.36783 -1.229265,0.6482 -1.733227,1.34668 -0.118542,0.16256 -0.237083,0.32512 -0.359216,0.49261 -0.122591,0.17339 -0.245183,0.34678 -0.371489,0.52542 -0.191305,0.26622 -0.191305,0.26622 -0.386475,0.53782 -2.664553,3.41517 -2.664553,3.41517 -3.433439,7.48236 0.02831,0.3247 0.05662,0.64939 0.08578,0.98392 0.132927,1.30922 0.289904,2.61644 0.466896,3.92043 0.184525,1.43373 0.200014,2.84553 0.174925,4.28992 -1.185109,0.008 -2.370213,0.0124 -3.555339,0.0165 -0.338506,0.002 -0.677013,0.004 -1.025777,0.007 -0.321453,7.9e-4 -0.642906,0.002 -0.9741,0.003 -0.446848,0.002 -0.446848,0.002 -0.902723,0.004 -0.685811,-0.03 -0.685811,-0.03 -0.950394,-0.29462 -0.945233,-6.3196 -0.642846,-12.92323 -0.688153,-19.29132 -0.01066,-1.42028 -0.02421,-2.84054 -0.03738,-4.2608 -0.04753,-5.27099 -0.04753,-5.27099 -0.05951,-7.64322 -0.0047,-0.91441 -0.0154,-1.82852 -0.02968,-2.74282 -0.0049,-0.43676 -0.0097,-0.87352 -0.01455,-1.31028 -0.0043,-0.20081 -0.0086,-0.40163 -0.01299,-0.60853 -0.0039,-0.48337 0.01985,-0.96681 0.04852,-1.44935 0.529166,-0.52917 0.529166,-0.52917 1.139465,-0.59344 z"
         style="fill:none;stroke:#a68b4d;stroke-width:1.265;stroke-dasharray:none;stroke-opacity:1"
         id="path20019" /><path
         d="m 35.444097,102.27504 c 0.394889,0.004 0.394889,0.004 0.797755,0.008 0.427183,0.003 0.427183,0.003 0.862996,0.005 0.298432,0.004 0.596863,0.009 0.904338,0.0134 0.450716,0.004 0.450716,0.004 0.910538,0.007 0.743852,0.006 1.487593,0.015 2.231389,0.0258 0.638692,0.95804 0.764991,1.84729 0.942578,2.96003 0.03613,0.21112 0.07226,0.42224 0.10949,0.63975 0.199666,1.2364 0.290013,2.41904 0.285318,3.67 0.0068,1.75756 0.210701,2.73491 1.457275,4.00809 0.469133,0.39846 0.948556,0.7852 1.438672,1.15755 0.207026,0.16917 0.414052,0.33834 0.627352,0.51263 0.907588,0.79798 0.907588,0.79798 2.018481,1.07487 -0.0039,-0.17178 -0.0078,-0.34356 -0.01182,-0.52054 -0.0402,-1.78101 -0.07853,-3.56205 -0.115751,-5.34312 -0.01416,-0.66552 -0.0288,-1.33102 -0.04393,-1.99652 -0.02161,-0.9542 -0.0415,-1.90843 -0.06104,-2.86268 -0.0072,-0.29958 -0.01431,-0.59916 -0.02167,-0.90782 -0.0053,-0.27543 -0.01063,-0.55087 -0.01611,-0.83464 -0.0053,-0.24383 -0.01058,-0.48766 -0.01602,-0.73888 0.02177,-0.55413 0.02177,-0.55413 0.286356,-0.81872 0.918657,-0.0664 1.840814,-0.049 2.761589,-0.0496 0.259379,-0.003 0.518759,-0.006 0.785998,-0.01 0.247784,-5.2e-4 0.495567,-0.001 0.750859,-0.002 0.228321,-10e-4 0.456643,-0.002 0.691883,-0.003 0.565921,0.0643 0.565921,0.0643 1.095088,0.59344 0.08043,0.49472 0.08043,0.49472 0.100834,1.11227 0.009,0.23632 0.0179,0.47264 0.02713,0.71613 0.0072,0.26259 0.01445,0.52518 0.0219,0.79573 0.0096,0.27902 0.01921,0.55803 0.0291,0.8455 0.03181,0.96005 0.05913,1.92016 0.08562,2.88037 0.01486,0.52209 0.01486,0.52209 0.03002,1.05473 0.06047,2.13696 0.116046,4.27404 0.170266,6.41116 0.170248,6.70865 0.350371,13.41332 0.720006,20.11466 0.01133,0.21322 0.02267,0.42643 0.03435,0.64611 0.02081,0.38793 0.04287,0.7758 0.0665,1.16358 0.06674,1.24232 0.06674,1.24232 -0.227392,1.83059 -4.103122,0.45232 -4.103122,0.45232 -6.085417,0.26459 -0.735938,-0.73594 -0.618465,-1.22319 -0.659391,-2.25413 -0.01747,-0.3564 -0.03504,-0.71279 -0.05271,-1.06919 -0.02478,-0.55769 -0.04821,-1.11537 -0.06938,-1.67321 -0.123394,-3.10369 -0.458286,-6.16182 -2.294304,-8.77834 -0.532574,-0.77328 -1.024714,-1.51282 -1.422135,-2.36472 -0.174625,0 -0.34925,0 -0.529167,0 -0.261938,-0.34925 -0.523875,-0.6985 -0.79375,-1.05833 -0.174625,0 -0.34925,0 -0.529167,0 -0.01329,1.60358 -0.02278,3.20713 -0.02907,4.81075 -0.0026,0.54313 -0.0062,1.08625 -0.01085,1.62936 -0.02943,3.53719 0.111801,6.98419 0.569087,10.49322 -1.057162,0.52859 -2.393029,0.32512 -3.555339,0.33073 -0.421811,0.008 -0.421811,0.008 -0.852144,0.0165 -0.269611,0.001 -0.539223,0.003 -0.817004,0.004 -0.247421,0.002 -0.494842,0.005 -0.749761,0.007 -0.640335,-0.0943 -0.640335,-0.0943 -1.107555,-0.43046 -0.569348,-0.79788 -0.624364,-1.62286 -0.615809,-2.58242 0.0012,-0.21 0.0023,-0.42 0.0035,-0.63637 0.0026,-0.22824 0.0052,-0.45648 0.0079,-0.69163 0.0025,-0.3637 0.0025,-0.3637 0.005,-0.73474 0.0037,-0.52765 0.0079,-1.0553 0.01258,-1.58294 0.0071,-0.84368 0.01179,-1.68734 0.01574,-2.53104 0.01125,-2.39961 0.02352,-4.79919 0.0452,-7.19874 0.05898,-6.73718 0.04697,-13.30235 -1.12364,-19.95387 -0.08856,-0.5291 -0.176852,-1.05826 -0.264584,-1.5875 0.529167,-0.52917 0.529167,-0.52917 1.172151,-0.58924 z"
         style="fill:none;stroke:#a68b4d;stroke-width:1.265;stroke-dasharray:none;stroke-opacity:1"
         id="path20021" /><path
         d="m 124.65151,101.53561 c 0.2979,0.0125 0.5958,0.0249 0.90272,0.0378 0.48218,0.0192 0.48218,0.0192 0.9741,0.0388 0.33851,0.0148 0.67702,0.0297 1.02578,0.045 0.5093,0.0207 0.5093,0.0207 1.02888,0.0419 0.84221,0.0344 1.68435,0.0702 2.52646,0.10697 0.43457,0.86915 0.44187,1.83867 0.5457,2.79466 0.0241,0.20481 0.0481,0.40962 0.0729,0.62064 0.15806,1.42735 0.1967,2.82165 0.17518,4.25762 0.93638,-0.52549 1.67653,-1.09103 2.44739,-1.83555 1.69978,-1.56175 3.58898,-2.8395 5.4874,-4.146 0.80107,-0.55493 1.59245,-1.12289 2.38396,-1.69137 1.4029,0.92074 2.05899,2.16142 2.86081,3.58841 0.13284,0.22835 0.26569,0.45669 0.40256,0.69195 0.96996,1.69843 0.96996,1.69843 0.96996,2.59881 -0.24534,0.0675 -0.24534,0.0675 -0.49564,0.13642 -4.34311,1.21245 -8.5734,2.52309 -11.93977,5.68441 -0.13097,0.26194 -0.13097,0.26194 -0.26459,0.52917 0.17463,0.0546 0.34925,0.10914 0.52917,0.16536 1.09187,0.50045 1.9763,1.203 2.91042,1.95131 0.2575,0.20122 0.515,0.40245 0.78031,0.60978 0.83051,0.69742 1.47634,1.49781 2.09703,2.38331 0.11281,0.16018 0.22561,0.32035 0.34184,0.48538 2.83383,4.13663 4.39566,8.86983 5.85747,13.62286 0.1109,0.36015 0.22266,0.72005 0.3353,1.07968 0.15906,0.51019 0.31338,1.02185 0.46755,1.53354 0.13656,0.448 0.13656,0.448 0.27588,0.90505 0.16711,0.83024 0.14681,1.33159 -0.10122,2.13456 -0.26458,0.26459 -0.26458,0.26459 -1.04334,0.27453 -0.34056,-0.0108 -0.68111,-0.0216 -1.03198,-0.0327 -0.18106,-0.006 -0.36211,-0.0112 -0.54865,-0.017 -0.38347,-0.0122 -0.76692,-0.0252 -1.15035,-0.0388 -0.58876,-0.0206 -1.17756,-0.0384 -1.76642,-0.0558 -0.37174,-0.0122 -0.74346,-0.0246 -1.11518,-0.0372 -0.34056,-0.0114 -0.68111,-0.0228 -1.03198,-0.0345 -0.77876,-0.0585 -0.77876,-0.0585 -1.04335,-0.3231 -0.0617,-1.88209 -0.0617,-1.88209 0.13074,-2.61367 0.47869,-2.00759 -0.0315,-3.95827 -0.56069,-5.90261 -0.0718,-0.26765 -0.14363,-0.5353 -0.21762,-0.81106 -0.92307,-3.33617 -2.18286,-7.3996 -4.90868,-9.72266 -0.26194,-0.0873 -0.52387,-0.17463 -0.79375,-0.26459 -0.41004,9.21294 -0.41004,9.21294 1.42627,18.125 0.16123,0.66042 0.16123,0.66042 -0.0744,1.2795 -0.0969,0.14496 -0.19373,0.28991 -0.29352,0.43925 -1.76103,0.213 -3.51915,0.30506 -5.29167,0.33073 -0.19626,0.006 -0.39252,0.0113 -0.59473,0.0171 -1.38473,0.009 -1.38473,0.009 -1.97365,-0.38641 -0.49091,-0.70404 -0.4337,-1.22235 -0.42375,-2.07597 0.002,-0.32912 0.003,-0.65824 0.005,-0.99733 0.006,-0.36277 0.0117,-0.72555 0.0175,-1.08833 0.003,-0.37734 0.006,-0.75467 0.008,-1.13201 0.005,-0.80344 0.0126,-1.60681 0.0216,-2.41022 0.0227,-2.09066 0.0284,-4.1814 0.0336,-6.27216 8.8e-4,-0.31071 8.8e-4,-0.31071 0.002,-0.6277 0.009,-3.54581 -0.0517,-7.08309 -0.22089,-10.62536 -0.009,-0.21611 -0.0187,-0.43222 -0.0283,-0.65487 -0.11739,-2.64044 -0.38694,-5.22784 -0.8133,-7.83735 -0.24193,-1.53222 -0.3849,-3.05259 -0.26634,-4.60466 0.26458,-0.26458 0.26458,-0.26458 0.95039,-0.27033 z"
         style="fill:none;stroke:#a68b4d;stroke-width:1.265;stroke-dasharray:none;stroke-opacity:1"
         id="path20023" /><path
         d="m 60.957654,21.306469 c 3.366564,1.965877 5.962594,5.24721 7.974707,8.532812 -0.816498,1.809642 -1.800462,3.377241 -2.997233,4.960938 -0.44588,0.563898 -0.44588,0.563898 -0.706934,1.124479 -0.809942,-0.0819 -1.046633,-0.251452 -1.598869,-0.871265 -0.187244,-0.252728 -0.374488,-0.505457 -0.567407,-0.765844 -1.234153,-1.568701 -2.534199,-2.751938 -4.448307,-3.389974 -1.521831,-0.09979 -2.358404,0.01133 -3.704167,0.79375 -0.392906,0.130968 -0.392906,0.130968 -0.79375,0.264583 -0.441388,0.924815 -0.619146,1.498871 -0.362768,2.505273 0.347213,0.861379 0.741166,1.691957 1.156518,2.52181 0.09307,0.190058 0.186136,0.380117 0.282025,0.575934 1.752123,3.554881 3.772376,6.711379 6.332559,9.742816 2.804981,-0.124666 4.977256,-1.935846 7.035229,-3.690731 1.570532,-1.336352 1.570532,-1.336352 2.225187,-1.336352 0.6761,1.3522 0.375649,3.287671 0,4.696354 -2.034475,3.306022 -6.58405,6.824612 -10.054166,8.532812 -0.79375,0.127125 -0.79375,0.127125 -1.5875,0 -4.011096,-3.027124 -6.619372,-8.690506 -9.203444,-12.872857 -0.855027,-1.382473 -1.732187,-2.732843 -2.669733,-4.060476 -1.300928,-1.97293 -1.300928,-1.97293 -1.091406,-3.439583 0.682708,-1.075183 1.513447,-1.981805 2.38125,-2.910417 0.452162,-0.495942 0.904161,-0.992034 1.355989,-1.488281 0.218963,-0.23704 0.437927,-0.474079 0.663526,-0.718302 0.758248,-0.852091 1.443277,-1.74505 2.114599,-2.666504 0.120055,-0.138131 0.240109,-0.276262 0.363802,-0.418579 0.174625,0 0.34925,0 0.529167,0 0.06533,-0.151198 0.13067,-0.302396 0.197985,-0.458176 0.384724,-0.697187 0.834679,-1.172185 1.39675,-1.736006 0.209584,-0.210266 0.419168,-0.420532 0.635103,-0.63717 0.219134,-0.217087 0.438268,-0.434175 0.664042,-0.657841 0.327166,-0.330236 0.327166,-0.330236 0.660942,-0.667143 0.209925,-0.209243 0.41985,-0.418486 0.636136,-0.634069 0.191998,-0.191402 0.383996,-0.382803 0.581812,-0.580004 0.93463,-0.8113 1.512883,-0.762798 2.598356,-0.251987 z"
         style="fill:none;stroke:#a68b4d;stroke-width:1.265;stroke-dasharray:none;stroke-opacity:1"
         id="path20025" /><path
         d="m 34.668886,20.548828 c 0.286814,0.0014 0.573628,0.0028 0.869133,0.0042 0.464274,0.0013 0.464274,0.0013 0.937927,0.0026 0.488831,0.0033 0.488831,0.0033 0.987537,0.0067 0.490365,0.0018 0.490365,0.0018 0.990637,0.0036 0.810816,0.0031 1.621607,0.0075 2.43241,0.01292 0.681001,1.861405 0.8343,3.636992 0.82889,5.605859 5.29e-4,0.305891 5.29e-4,0.305891 0.0011,0.617961 5.03e-4,0.659432 -0.0012,1.318834 -0.0031,1.978263 -2.34e-4,0.226781 -4.76e-4,0.453563 -7.14e-4,0.687216 -0.0031,2.563273 -0.02549,5.120128 -0.164654,7.680232 -0.310571,5.743933 -0.292615,11.560896 0.132292,17.297136 -2.182813,0 -4.365625,0 -6.614584,0 -1.215571,-1.823357 -0.818416,-4.747074 -0.826823,-6.895703 -0.0012,-0.206983 -0.0025,-0.413967 -0.0037,-0.627224 0.0034,-1.346144 0.05647,-2.68551 0.131407,-4.029199 0.169252,-3.051239 0.219263,-6.095177 0.219024,-9.150874 5.84e-4,-0.832241 0.0054,-1.664393 0.0104,-2.496618 0.0077,-2.818177 -0.07652,-5.507805 -0.588595,-8.285799 -0.106785,-0.706375 -0.19485,-1.405382 -0.264583,-2.116667 0.264583,-0.264583 0.264583,-0.264583 0.926106,-0.29462 z"
         style="fill:none;stroke:#a68b4d;stroke-width:1.265;stroke-dasharray:none;stroke-opacity:1"
         id="path20027" /><path
         d="m 128.19903,19.255948 c 0.26194,0.08731 0.52387,0.174625 0.79375,0.264583 0.0641,0.332197 0.12824,0.664394 0.1943,1.006657 0.50042,2.522747 1.02958,4.880681 2.18695,7.195427 0.90216,-0.375736 1.33249,-0.800449 1.90169,-1.5875 3.86792,-5.143424 3.86792,-5.143424 6.56498,-6.35 0.62425,-0.01964 0.62425,-0.01964 1.32291,0.264583 0.50879,0.665358 0.85917,1.398057 1.2237,2.14974 0.10096,0.197817 0.20191,0.395634 0.30593,0.599446 0.29258,0.579111 0.57363,1.162501 0.85162,1.748731 0.12777,0.25874 0.12777,0.25874 0.25813,0.522707 0.43639,0.927768 0.58037,1.415423 0.27104,2.387709 -0.3131,0.05491 -0.62619,0.109823 -0.94878,0.166398 -2.50419,0.473974 -4.54235,0.954877 -6.45955,2.744019 -0.16542,0.15382 -0.33084,0.30764 -0.50126,0.466121 -0.98741,1.029028 -1.33905,1.764728 -1.35083,3.238045 0.34432,0.946597 0.83389,1.793328 1.33946,2.66237 0.14307,0.253305 0.28615,0.506609 0.43356,0.767589 3.36311,5.883046 7.16793,11.540865 11.45305,16.79413 0.14836,0.185539 0.29673,0.371078 0.44958,0.562239 0.12654,0.153139 0.25307,0.306277 0.38344,0.464056 0.22841,0.44545 0.22841,0.44545 0.16123,1.009756 -0.1974,0.494027 -0.1974,0.494027 -0.62735,0.841292 -0.92141,0.266724 -1.59384,0.249598 -2.48047,-0.08268 -1.02998,-0.631124 -1.96658,-1.364411 -2.91041,-2.116666 -0.35761,-0.280866 -0.35761,-0.280866 -0.72244,-0.567407 -4.11881,-3.298616 -7.77971,-7.048355 -11.18381,-11.07426 -1.05555,2.403073 -0.82992,5.145008 -0.81029,7.722526 0.001,0.302353 0.002,0.604708 0.004,0.916223 0.003,0.736404 0.007,1.472779 0.0129,2.209168 -0.89443,0.447214 -1.91098,0.32926 -2.89595,0.3483 -0.23416,0.0055 -0.46832,0.01101 -0.70957,0.01667 -0.74944,0.01733 -1.49891,0.03291 -2.24839,0.04845 -0.50746,0.01143 -1.01493,0.02297 -1.52239,0.03462 -1.24537,0.02835 -2.49078,0.05515 -3.7362,0.08112 -0.17463,-0.34925 -0.34925,-0.6985 -0.52917,-1.058333 0.14734,-0.256482 0.29468,-0.512961 0.44648,-0.777214 1.96859,-3.448073 3.75192,-6.936388 5.32474,-10.583333 0.0987,-0.228577 0.19748,-0.457154 0.29921,-0.692658 0.27756,-0.653665 0.54598,-1.309966 0.80874,-1.969712 0.084,-0.208091 0.16806,-0.416184 0.25463,-0.630581 0.48652,-1.302996 0.67599,-2.225656 0.27453,-3.602752 -0.40116,-0.768468 -0.87403,-1.479599 -1.35599,-2.199349 -1.05903,-1.653378 -1.94147,-3.291949 -2.64583,-5.126302 -0.0747,-0.192978 -0.14947,-0.385957 -0.22647,-0.584783 -0.42493,-1.156326 -0.66716,-2.241811 -0.79879,-3.466649 1.11984,-1.265003 2.402,-2.010586 3.86953,-2.827734 0.45003,-0.254411 0.89997,-0.508996 1.34979,-0.763778 0.29705,-0.166109 0.29705,-0.166109 0.60009,-0.335574 0.45205,-0.260914 0.89006,-0.545894 1.32434,-0.835414 z"
         style="fill:none;stroke:#a68b4d;stroke-width:1.265;stroke-dasharray:none;stroke-opacity:1"
         id="path20029" /><path
         d="m 159.68444,19.255948 c 2.92108,1.620093 6.66752,4.987254 8.20208,7.9375 0.15941,1.266884 -0.0803,1.890021 -0.84336,2.89388 -0.1678,0.225444 -0.3356,0.450887 -0.50849,0.683162 -0.16508,0.216576 -0.33015,0.433152 -0.50023,0.656291 -0.26039,0.362863 -0.51966,0.726532 -0.77721,1.091406 -0.18009,0.251024 -0.36017,0.502047 -0.54571,0.760677 -1.23155,-0.128934 -1.82991,-0.611883 -2.74505,-1.422135 -1.97588,-1.652696 -3.36863,-2.159023 -5.94279,-2.093929 -1.44322,0.13185 -2.50365,0.476331 -3.61528,1.449007 -0.47929,0.468364 -0.47929,0.468364 -0.35554,1.19786 0.23031,1.592543 1.0009,3.014844 1.67846,4.457609 0.14314,0.306937 0.28628,0.613873 0.43375,0.930111 1.42868,3.010697 3.06605,5.696492 5.19794,8.268295 0.32143,0.442349 0.32143,0.442349 0.32143,0.971516 1.48835,0.16366 2.21409,-0.110699 3.35948,-0.981594 0.17378,-0.139922 0.34755,-0.279844 0.52659,-0.424005 0.1823,-0.141627 0.3646,-0.283254 0.55242,-0.429173 1.68756,-1.329283 3.27461,-2.761942 4.82193,-4.250645 0.43656,0.08731 0.87312,0.174625 1.32291,0.264583 0.74046,4.109554 0.74046,4.109554 -0.0372,5.608961 -0.48294,0.559125 -1.00119,1.040135 -1.5503,1.534789 -0.2535,0.254667 -0.50522,0.511117 -0.75551,0.768946 -1.45155,1.491818 -2.93995,2.920939 -4.53615,4.258138 -0.36119,0.31719 -0.36119,0.31719 -0.72967,0.640786 -0.2558,0.219646 -0.5116,0.439293 -0.77515,0.665594 -0.35351,0.306445 -0.35351,0.306445 -0.71417,0.619082 -0.76744,0.505892 -1.11542,0.60156 -2.01435,0.455788 -0.50742,-0.425138 -0.89422,-0.825728 -1.32291,-1.322917 -0.14291,-0.151773 -0.28582,-0.303549 -0.43305,-0.45992 -3.88698,-4.19663 -7.16344,-9.083665 -10.37766,-13.803809 -0.4017,-0.579824 -0.80881,-1.145951 -1.23197,-1.709456 -2.12057,-2.853435 -2.12057,-2.853435 -2.13424,-4.356323 0.35544,-1.321544 1.35597,-2.245391 2.27067,-3.218408 0.23595,-0.262619 0.47123,-0.525843 0.7059,-0.789616 1.9131,-2.136313 3.89383,-4.198139 6.07301,-6.064746 1.03186,-0.908171 2.03018,-1.852795 3.03102,-2.79492 0.43084,-0.403391 0.86567,-0.801823 1.30257,-1.198635 0.17871,-0.165075 0.35743,-0.33015 0.54157,-0.500228 0.75525,-0.428984 1.24858,-0.409912 2.10426,-0.293522 z"
         style="fill:none;stroke:#a68b4d;stroke-width:1.265;stroke-dasharray:none;stroke-opacity:1"
         id="path20031" /><path
         d="m 58.355231,12.830501 c 0.167119,0.06503 0.334238,0.130065 0.506421,0.197069 0.840333,0.328094 1.675017,0.663663 2.506703,1.013516 2.23541,0.903543 4.60194,1.609834 6.957133,0.707063 1.209693,-0.623576 2.243388,-1.465566 3.252708,-2.371367 2.088821,0.843738 3.17895,3.578786 4.241602,5.438428 0.283415,0.715394 0.267163,1.000348 -0.0083,1.705322 -4.606107,1.535369 -10.441093,-0.295875 -14.816666,-1.852084 -0.489304,-0.158342 -0.979757,-0.313221 -1.471745,-0.46302 -0.191337,-0.05866 -0.382674,-0.117326 -0.579809,-0.177767 -4.20098,-1.081296 -8.366136,0.05052 -12.12019,2.001945 -0.807451,0.283384 -1.173345,0.282883 -1.967839,-0.03824 C 44.337482,18.354711 44.337482,18.354711 43.846556,17.536157 42.8983,16.026172 41.847753,14.726124 40.621947,13.435115 44.6997,8.8630888 53.356983,10.877504 58.355231,12.830501 Z"
         style="fill:none;stroke:#a68b4d;stroke-width:1.265;stroke-dasharray:none;stroke-opacity:1"
         id="path20033" /><path
         d="m 142.38731,11.566495 c 4.10369,1.744464 7.39164,1.53965 11.51351,-0.08682 1.16644,-0.248587 1.94506,0.147764 2.96209,0.709 0.17804,0.116644 0.35607,0.233288 0.5395,0.353467 0.18213,0.118008 0.36426,0.236017 0.55191,0.357601 0.13438,0.08936 0.26876,0.178718 0.40721,0.270784 -0.0687,0.85228 -0.29484,1.086759 -0.93121,1.684652 -0.28749,0.224968 -0.57813,0.445955 -0.87127,0.663525 -0.15428,0.115408 -0.30857,0.230816 -0.46754,0.349721 -2.41489,1.762396 -4.4631,2.930365 -7.51956,2.593769 -1.1351,-0.280974 -2.2248,-0.660882 -3.32383,-1.058333 -2.56892,-0.925624 -4.89511,-1.687997 -7.50755,-0.496094 -0.26399,0.11869 -0.52797,0.237381 -0.79996,0.359668 -1.0621,0.529688 -2.09261,1.10588 -3.11195,1.71359 -0.60255,0.274919 -0.60255,0.274919 -1.3963,0.01034 -0.65687,-0.675911 -1.21199,-1.436065 -1.78594,-2.182813 -0.16268,-0.202251 -0.32537,-0.404502 -0.49299,-0.612882 -0.15245,-0.197476 -0.30491,-0.394953 -0.46199,-0.598413 -0.21065,-0.26974 -0.21065,-0.26974 -0.42555,-0.544928 -0.35451,-0.725457 -0.23374,-1.123476 -0.009,-1.881798 8.86456,-3.5363915 8.86456,-3.5363915 13.12995,-1.604036 z"
         style="fill:none;stroke:#a68b4d;stroke-width:1.265;stroke-dasharray:none;stroke-opacity:1"
         id="path20035" /><path
         d="m 118.0476,9.706677 c 0.30867,-0.00482 0.61733,-0.00964 0.93535,-0.014611 0.27737,-0.0053 0.55473,-0.010601 0.8405,-0.016062 0.70266,0.054944 0.70266,0.054944 1.49641,0.584111 -0.14566,1.827551 -0.64127,3.491505 -1.16617,5.243301 -4.72869,15.926797 -5.74919,31.949745 -5.97758,48.467114 11.66921,-0.219395 23.16729,-1.392198 34.66042,-3.439583 0.27549,-0.04792 0.55099,-0.09584 0.83483,-0.145209 2.99084,-0.523423 5.94736,-1.14486 8.89791,-1.858801 0.25053,-0.06051 0.50107,-0.121013 0.7592,-0.183351 1.26184,-0.305623 2.52249,-0.615371 3.78186,-0.930987 0.46654,-0.114705 0.93309,-0.229364 1.39966,-0.343971 0.2144,-0.05504 0.42881,-0.110088 0.6497,-0.166799 0.20044,-0.04877 0.40088,-0.09754 0.60739,-0.147783 0.17373,-0.0436 0.34746,-0.0872 0.52644,-0.132122 0.66419,-0.0742 1.2117,0.04827 1.85759,0.204856 0.30717,2.658951 0.34836,5.321326 0.40618,7.994346 0.0114,0.501832 0.0229,1.003667 0.0344,1.5055 0.024,1.054796 0.0473,2.109607 0.07,3.164432 0.0228,1.055519 0.0466,2.111005 0.0716,3.166475 0.1774,7.512431 0.24551,15.019367 0.21155,22.53383 -0.88669,0.288531 -1.53036,0.237749 -2.44352,0.07694 -0.2787,-0.04793 -0.5574,-0.09585 -0.84455,-0.145227 -0.30238,-0.0542 -0.60477,-0.108405 -0.91632,-0.16425 -0.31623,-0.05482 -0.63245,-0.109644 -0.95825,-0.166124 -0.85741,-0.148765 -1.71448,-0.299292 -2.5715,-0.450258 -1.43321,-0.251317 -2.86759,-0.4959 -4.30178,-0.741508 -0.35937,-0.06156 -0.71873,-0.123177 -1.07809,-0.184856 -13.99919,-2.402901 -27.98047,-3.933005 -42.18391,-4.310129 0.12391,16.917019 2.47253,33.123869 8.49503,49.028269 0.52807,1.42536 0.52807,1.42536 0.23622,2.30089 -5.26894,0.0407 -10.5379,0.0799 -15.80688,0.1172 -2.44633,0.0174 -4.89266,0.0352 -7.338989,0.0543 -2.131593,0.0166 -4.26319,0.0323 -6.394797,0.0468 -1.129229,0.008 -2.258449,0.0159 -3.387667,0.0253 -1.061927,0.009 -2.123853,0.0163 -3.185795,0.0228 -0.390599,0.003 -0.781193,0.006 -1.171784,0.009 -0.531614,0.005 -1.063244,0.008 -1.594874,0.0107 -0.298035,0.002 -0.596069,0.004 -0.903137,0.007 -0.697322,-0.0284 -0.697322,-0.0284 -1.226489,-0.29301 0.127825,-2.05467 0.561393,-3.95211 1.091406,-5.93659 3.868058,-15.02669 5.466644,-30.4473 6.052344,-45.921737 -16.669081,1.148278 -33.448683,2.660718 -49.600072,7.206797 -0.181597,0.05079 -0.363191,0.101592 -0.550291,0.153929 -0.479285,0.136025 -0.957268,0.276625 -1.435118,0.417611 -0.830842,0.164883 -1.312992,0.0835 -2.124935,-0.105421 -0.19163,-2.222254 -0.310928,-4.431517 -0.343196,-6.661544 -0.0052,-0.301646 -0.0104,-0.603295 -0.01577,-0.914083 -0.01675,-0.985673 -0.03201,-1.971365 -0.04722,-2.957062 -0.0114,-0.692124 -0.02289,-1.384245 -0.03446,-2.076363 -0.02402,-1.446175 -0.04728,-2.892359 -0.06999,-4.338555 -0.02899,-1.845286 -0.05921,-3.690551 -0.08985,-5.535809 -0.02939,-1.771104 -0.0581,-3.54222 -0.08682,-5.313336 -0.0055,-0.333552 -0.01093,-0.667104 -0.01654,-1.010766 -0.110236,-6.782311 -0.110236,-6.782311 -0.08991,-9.821648 0.752586,-0.428175 0.968711,-0.54365 1.857317,-0.40004 0.312393,0.09074 0.624787,0.181489 0.946647,0.274985 0.358259,0.100708 0.716529,0.20139 1.074804,0.302048 0.18933,0.05471 0.378663,0.109418 0.57373,0.165785 16.239416,4.666261 33.218506,6.103591 50.051668,6.007222 C 88.830235,47.218405 86.629198,30.09233 80.482729,14.414347 80.386659,14.163878 80.290583,13.913409 80.191597,13.655349 80.06261,13.330901 80.06261,13.330901 79.93102,12.999898 c -0.177594,-0.733876 -0.08235,-1.223914 0.113815,-1.94594 1.040839,-0.190249 2.043989,-0.305296 3.101237,-0.336579 0.295529,-0.0093 0.591055,-0.01854 0.895541,-0.02809 0.32041,-0.0089 0.640823,-0.01789 0.970944,-0.02711 0.340511,-0.01036 0.681021,-0.02072 1.031851,-0.0314 0.93159,-0.02831 1.863212,-0.05527 2.794847,-0.08195 0.978667,-0.02823 1.957297,-0.05762 2.935933,-0.08686 1.645186,-0.04898 3.290394,-0.09713 4.93562,-0.14473 1.894289,-0.05481 3.788542,-0.11073 5.682782,-0.167293 2.02481,-0.06045 4.04965,-0.120122 6.07449,-0.1795502 0.57911,-0.017046 1.15821,-0.034232 1.73731,-0.05145 1.08706,-0.032271 2.17415,-0.063659 3.26124,-0.094959 0.47499,-0.014221 0.47499,-0.014221 0.95958,-0.028729 1.20704,-0.034212 2.41425,-0.058018 3.62137,-0.088503 z"
         style="fill:none;stroke:#a68b4d;stroke-width:1.265;stroke-dasharray:none;stroke-opacity:1"
         id="path20037" /></g></g></svg>
